<?xml version="1.0" encoding="UTF-8"?>
<svg xmlns="http://www.w3.org/2000/svg" xmlns:xlink="http://www.w3.org/1999/xlink" width="100px" height="85px" viewBox="0 0 100 85" version="1.1">
<g id="surface1">
<path style=" stroke:none;fill-rule:nonzero;fill:rgb(0%,0%,0%);fill-opacity:1;" d="M 46.765625 4.171875 C 42.035156 4.613281 37.917969 5.789062 33.457031 7.976562 C 31.714844 8.808594 29.289062 10.207031 28.0625 11.066406 C 25.539062 12.859375 21.226562 17.054688 19.609375 19.335938 C 12.378906 29.371094 10.292969 40.855469 13.503906 52.757812 L 14.019531 54.71875 L 32.425781 54.71875 L 32.207031 53.664062 C 32.109375 53.101562 31.984375 50.867188 31.984375 48.707031 C 31.984375 46.449219 31.839844 44.265625 31.667969 43.578125 C 31.398438 42.5 31.421875 42.035156 31.984375 39.285156 C 32.746094 35.582031 33.039062 34.597656 33.503906 34.058594 C 33.945312 33.566406 33.800781 33.027344 32.820312 31.433594 C 32.425781 30.796875 31.960938 29.570312 31.789062 28.710938 C 31.570312 27.726562 31.398438 27.3125 31.300781 27.554688 C 31.003906 28.339844 29.902344 28.046875 28.824219 26.917969 C 27.671875 25.714844 26.398438 22.746094 26.519531 21.519531 C 26.59375 20.785156 26.789062 20.636719 29.289062 19.335938 C 30.785156 18.550781 32.230469 17.789062 32.550781 17.644531 C 32.988281 17.398438 33.261719 17.421875 33.945312 17.742188 C 34.730469 18.109375 34.925781 18.109375 36.199219 17.789062 C 37.867188 17.347656 41.640625 17.300781 42.523438 17.714844 C 42.988281 17.9375 43.210938 17.9375 43.429688 17.714844 C 43.871094 17.273438 45.074219 17.371094 45.957031 17.914062 C 46.398438 18.183594 47.402344 18.625 48.1875 18.894531 C 50.859375 19.828125 51.175781 20.539062 50.761719 24.710938 C 50.292969 29.691406 49.753906 30.253906 48.261719 27.382812 L 47.378906 25.714844 L 47.207031 26.894531 C 47.132812 27.554688 46.839844 28.757812 46.59375 29.570312 C 46.03125 31.359375 46.226562 31.898438 47.425781 31.898438 C 47.890625 31.898438 49.3125 32.121094 50.589844 32.414062 C 53.40625 33.027344 53.96875 32.90625 56.886719 31.140625 C 62.550781 27.65625 67.890625 26.476562 72.082031 27.753906 C 73.015625 28.046875 73.773438 28.316406 73.773438 28.390625 C 73.773438 28.757812 71.273438 29.46875 69.238281 29.691406 C 66.691406 29.960938 64.167969 30.722656 62.402344 31.753906 C 61.101562 32.511719 58.578125 34.769531 58.578125 35.1875 C 58.578125 35.335938 58.945312 36.195312 59.410156 37.050781 C 60.269531 38.671875 61.542969 42.621094 62.621094 46.992188 C 62.964844 48.339844 63.457031 50.15625 63.726562 51.039062 C 63.96875 51.921875 64.265625 53.101562 64.363281 53.664062 L 64.535156 54.71875 L 86.226562 54.71875 L 86.738281 52.757812 C 87.671875 49.347656 87.988281 47.335938 88.136719 43.921875 C 88.554688 35.089844 86.054688 26.871094 80.636719 19.335938 C 79.019531 17.054688 74.707031 12.859375 72.179688 11.066406 C 69.386719 9.105469 64.3125 6.625 61.152344 5.691406 C 56.570312 4.34375 51.128906 3.753906 46.765625 4.171875 Z M 46.765625 4.171875 "/>
<path style=" stroke:none;fill-rule:nonzero;fill:rgb(0%,0%,0%);fill-opacity:1;" d="M 54.902344 48.460938 C 54.167969 48.78125 53.261719 49.296875 52.890625 49.640625 C 52.253906 50.203125 52.207031 50.402344 52.207031 52.09375 C 52.207031 53.101562 52.132812 54.105469 52.058594 54.328125 C 51.9375 54.671875 52.378906 54.71875 56.199219 54.71875 L 60.488281 54.71875 L 60.367188 53.664062 C 60.195312 52.070312 59.828125 51.332031 58.945312 50.792969 C 58.1875 50.328125 57.082031 49.199219 56.496094 48.289062 C 56.273438 47.949219 56.101562 47.972656 54.902344 48.460938 Z M 54.902344 48.460938 "/>
<path style=" stroke:none;fill-rule:nonzero;fill:rgb(0%,0%,0%);fill-opacity:1;" d="M 37.402344 50.132812 C 37.328125 50.964844 37.230469 52.339844 37.15625 53.199219 L 37.058594 54.71875 L 41.617188 54.671875 L 46.199219 54.597656 L 46.273438 53.789062 C 46.324219 53.296875 46.152344 52.683594 45.832031 52.144531 C 45.246094 51.210938 44.902344 51.136719 41.789062 51.261719 C 40.21875 51.332031 39.730469 51.0625 38.824219 49.664062 C 38.601562 49.320312 38.210938 48.953125 37.964844 48.832031 C 37.574219 48.609375 37.523438 48.757812 37.402344 50.132812 Z M 37.402344 50.132812 "/>
<path style=" stroke:none;fill-rule:nonzero;fill:rgb(0%,0%,0%);fill-opacity:1;" d="M 21.863281 59.1875 C 21.9375 59.359375 22.378906 59.53125 22.867188 59.578125 L 23.773438 59.652344 L 23.773438 62.230469 C 23.773438 64.339844 23.847656 64.78125 24.140625 64.78125 C 24.4375 64.78125 24.511719 64.339844 24.511719 62.203125 L 24.511719 59.628906 L 25.488281 59.628906 C 26.199219 59.628906 26.46875 59.53125 26.46875 59.257812 C 26.46875 58.964844 26.054688 58.890625 24.117188 58.890625 C 22.351562 58.890625 21.789062 58.964844 21.863281 59.1875 Z M 21.863281 59.1875 "/>
<path style=" stroke:none;fill-rule:nonzero;fill:rgb(0%,0%,0%);fill-opacity:1;" d="M 28.332031 59.085938 C 28.136719 59.40625 26.226562 64.386719 26.226562 64.585938 C 26.226562 65.097656 26.886719 64.683594 27.207031 63.972656 C 27.5 63.308594 27.71875 63.160156 28.503906 63.113281 C 29.363281 63.039062 29.460938 63.085938 29.78125 63.898438 C 30.023438 64.460938 30.320312 64.78125 30.613281 64.78125 C 31.003906 64.78125 30.929688 64.460938 29.949219 61.835938 C 28.921875 59.085938 28.652344 58.597656 28.332031 59.085938 Z M 29.117188 61.761719 C 29.386719 62.570312 29.386719 62.570312 28.53125 62.570312 C 28.089844 62.570312 27.695312 62.523438 27.695312 62.472656 C 27.695312 62.425781 27.867188 61.984375 28.089844 61.46875 C 28.503906 60.460938 28.699219 60.535156 29.117188 61.761719 Z M 29.117188 61.761719 "/>
<path style=" stroke:none;fill-rule:nonzero;fill:rgb(0%,0%,0%);fill-opacity:1;" d="M 32.109375 61.835938 C 32.109375 64.484375 32.15625 64.78125 32.550781 64.78125 C 32.917969 64.78125 32.964844 64.511719 32.890625 61.835938 C 32.820312 59.480469 32.746094 58.890625 32.449219 58.890625 C 32.179688 58.890625 32.109375 59.429688 32.109375 61.835938 Z M 32.109375 61.835938 "/>
<path style=" stroke:none;fill-rule:nonzero;fill:rgb(0%,0%,0%);fill-opacity:1;" d="M 34.804688 61.835938 L 34.804688 64.78125 L 36.273438 64.78125 C 37.941406 64.78125 38.285156 64.363281 36.714844 64.242188 L 35.660156 64.167969 L 35.589844 61.515625 C 35.539062 59.40625 35.441406 58.890625 35.171875 58.890625 C 34.878906 58.890625 34.804688 59.40625 34.804688 61.835938 Z M 34.804688 61.835938 "/>
<path style=" stroke:none;fill-rule:nonzero;fill:rgb(0%,0%,0%);fill-opacity:1;" d="M 42.890625 61.835938 L 42.890625 64.78125 L 44.117188 64.78125 C 46.347656 64.78125 47.449219 63.675781 47.402344 61.542969 C 47.351562 59.726562 46.300781 58.890625 44.09375 58.890625 L 42.890625 58.890625 Z M 46.03125 60.265625 C 47.253906 61.664062 46.371094 64.042969 44.609375 64.117188 L 43.75 64.167969 L 43.675781 62.105469 C 43.628906 60.976562 43.675781 59.871094 43.75 59.675781 C 43.945312 59.136719 45.34375 59.503906 46.03125 60.265625 Z M 46.03125 60.265625 "/>
<path style=" stroke:none;fill-rule:nonzero;fill:rgb(0%,0%,0%);fill-opacity:1;" d="M 48.800781 61.835938 L 48.773438 64.78125 L 50.246094 64.78125 C 51.25 64.78125 51.714844 64.683594 51.714844 64.460938 C 51.714844 64.289062 51.371094 64.167969 50.808594 64.167969 C 49.902344 64.167969 49.878906 64.144531 49.804688 63.113281 L 49.730469 62.082031 L 50.589844 62.082031 C 51.691406 62.082031 51.738281 61.640625 50.6875 61.542969 C 49.949219 61.46875 49.878906 61.394531 49.804688 60.535156 C 49.753906 59.921875 49.828125 59.628906 50.050781 59.601562 C 50.21875 59.578125 50.488281 59.554688 50.613281 59.503906 C 50.761719 59.480469 51.054688 59.429688 51.300781 59.429688 C 51.519531 59.40625 51.714844 59.257812 51.714844 59.136719 C 51.714844 58.988281 51.078125 58.890625 50.269531 58.890625 L 48.824219 58.890625 Z M 48.800781 61.835938 "/>
<path style=" stroke:none;fill-rule:nonzero;fill:rgb(0%,0%,0%);fill-opacity:1;" d="M 53.1875 61.835938 L 53.1875 64.78125 L 54.632812 64.78125 C 56.324219 64.78125 56.886719 64.363281 55.34375 64.242188 L 54.289062 64.167969 L 54.214844 61.515625 C 54.167969 59.085938 54.117188 58.890625 53.675781 58.890625 C 53.210938 58.890625 53.1875 59.0625 53.1875 61.835938 Z M 53.1875 61.835938 "/>
<path style=" stroke:none;fill-rule:nonzero;fill:rgb(0%,0%,0%);fill-opacity:1;" d="M 57.351562 61.835938 C 57.351562 64.484375 57.402344 64.78125 57.792969 64.78125 C 58.160156 64.78125 58.210938 64.511719 58.136719 61.835938 C 58.0625 59.480469 57.988281 58.890625 57.695312 58.890625 C 57.425781 58.890625 57.351562 59.429688 57.351562 61.835938 Z M 57.351562 61.835938 "/>
<path style=" stroke:none;fill-rule:nonzero;fill:rgb(0%,0%,0%);fill-opacity:1;" d="M 59.4375 59.308594 C 59.535156 59.554688 60.050781 60.828125 60.5625 62.179688 C 61.59375 64.828125 61.667969 64.976562 61.984375 64.632812 C 62.179688 64.4375 64.214844 59.285156 64.214844 59.015625 C 64.214844 58.941406 64.070312 58.890625 63.871094 58.890625 C 63.675781 58.890625 63.1875 59.824219 62.695312 61.148438 L 61.839844 63.429688 L 61.519531 62.449219 C 60.589844 59.578125 60.269531 58.890625 59.753906 58.890625 C 59.386719 58.890625 59.3125 58.988281 59.4375 59.308594 Z M 59.4375 59.308594 "/>
<path style=" stroke:none;fill-rule:nonzero;fill:rgb(0%,0%,0%);fill-opacity:1;" d="M 65.21875 61.835938 L 65.195312 64.78125 L 66.667969 64.78125 C 68.285156 64.78125 68.699219 64.363281 67.230469 64.242188 C 66.324219 64.167969 66.300781 64.144531 66.226562 63.113281 L 66.152344 62.082031 L 67.011719 62.082031 C 68.113281 62.082031 68.160156 61.640625 67.109375 61.542969 C 66.371094 61.46875 66.300781 61.394531 66.226562 60.535156 C 66.152344 59.800781 66.226562 59.628906 66.59375 59.601562 C 66.839844 59.578125 67.15625 59.554688 67.28125 59.503906 C 67.425781 59.480469 67.671875 59.429688 67.84375 59.429688 C 67.988281 59.40625 68.136719 59.257812 68.136719 59.136719 C 68.136719 58.988281 67.5 58.890625 66.691406 58.890625 L 65.246094 58.890625 Z M 65.21875 61.835938 "/>
<path style=" stroke:none;fill-rule:nonzero;fill:rgb(0%,0%,0%);fill-opacity:1;" d="M 69.632812 61.8125 C 69.609375 64.632812 69.609375 64.78125 70.097656 64.78125 C 70.515625 64.78125 70.589844 64.632812 70.589844 63.675781 C 70.589844 62.867188 70.6875 62.570312 70.957031 62.570312 C 71.152344 62.570312 71.640625 63.0625 72.058594 63.675781 C 72.550781 64.363281 72.988281 64.78125 73.308594 64.78125 C 73.773438 64.78125 73.726562 64.65625 72.941406 63.578125 C 72.082031 62.402344 72.082031 62.402344 72.550781 61.957031 C 73.160156 61.417969 73.210938 59.824219 72.648438 59.359375 C 72.449219 59.1875 71.691406 59.015625 70.957031 58.941406 L 69.65625 58.84375 Z M 72.035156 60.019531 C 72.597656 60.558594 72.109375 61.6875 71.25 61.785156 C 70.613281 61.859375 70.589844 61.835938 70.589844 60.609375 C 70.589844 59.40625 70.613281 59.359375 71.152344 59.503906 C 71.445312 59.601562 71.863281 59.824219 72.035156 60.019531 Z M 72.035156 60.019531 "/>
<path style=" stroke:none;fill-rule:nonzero;fill:rgb(0%,0%,0%);fill-opacity:1;" d="M 74.070312 59.0625 C 74.117188 59.1875 74.511719 59.945312 74.949219 60.78125 C 75.539062 61.910156 75.734375 62.621094 75.734375 63.554688 C 75.734375 64.484375 75.832031 64.78125 76.101562 64.78125 C 76.398438 64.78125 76.46875 64.460938 76.46875 63.40625 C 76.46875 62.300781 76.640625 61.738281 77.351562 60.460938 C 78.015625 59.285156 78.136719 58.890625 77.867188 58.890625 C 77.648438 58.890625 77.179688 59.457031 76.789062 60.117188 L 76.078125 61.34375 L 75.488281 60.117188 C 75.097656 59.285156 74.78125 58.890625 74.4375 58.890625 C 74.191406 58.890625 74.019531 58.964844 74.070312 59.0625 Z M 74.070312 59.0625 "/>
<path style=" stroke:none;fill-rule:nonzero;fill:rgb(0%,0%,0%);fill-opacity:1;" d="M 37.988281 65.761719 C 37.988281 65.910156 38.800781 66.007812 39.925781 66.007812 C 41.003906 66.007812 41.960938 65.886719 42.035156 65.761719 C 42.132812 65.613281 41.421875 65.515625 40.097656 65.515625 C 38.847656 65.515625 37.988281 65.613281 37.988281 65.761719 Z M 37.988281 65.761719 "/>
<path style=" stroke:none;fill-rule:nonzero;fill:rgb(0%,0%,0%);fill-opacity:1;" d="M 25 70.914062 C 30.050781 75.382812 37.058594 78.667969 43.996094 79.871094 C 47.28125 80.4375 52.964844 80.4375 56.25 79.871094 C 63.1875 78.667969 70.195312 75.382812 75.246094 70.914062 L 76.347656 69.957031 L 23.898438 69.957031 Z M 25 70.914062 "/>
</g>
</svg>
