<svg version="1.1" xmlns="http://www.w3.org/2000/svg" xmlns:xlink="http://www.w3.org/1999/xlink" width="100px" height="100px" viewBox="0,0,256,256"><g fill="#ffffff" fill-rule="nonzero" stroke="none" stroke-width="1" stroke-linecap="butt" stroke-linejoin="miter" stroke-miterlimit="10" stroke-dasharray="" stroke-dashoffset="0" font-family="none" font-weight="none" font-size="none" text-anchor="none" style="mix-blend-mode: normal"><g transform="translate(-0.04186,0.80385) scale(2.56,2.58586)"><g id="surface1"><path d="M46.40234,0.6875c-6.28125,0.34766 -11.61719,1.78906 -17.83594,4.79688c-2.24219,1.0625 -5.36719,2.84766 -6.94531,3.94531c-3.25,2.28906 -8.80469,7.64453 -10.89062,10.55859c-9.30859,12.8125 -11.99219,27.47656 -7.85937,42.67188l0.66406,2.50391h23.70703l-0.28516,-1.34766c-0.125,-0.71875 -0.28516,-3.57031 -0.28516,-6.32812c0,-2.88281 -0.1875,-5.67187 -0.41016,-6.54687c-0.34766,-1.37891 -0.31641,-1.97266 0.41016,-5.48437c0.98047,-4.73047 1.35938,-5.98047 1.95703,-6.67187c0.57031,-0.625 0.37891,-1.31641 -0.88281,-3.35156c-0.50391,-0.81641 -1.10547,-2.38281 -1.32422,-3.47656c-0.28516,-1.25391 -0.50781,-1.78516 -0.63281,-1.47266c-0.37891,1 -1.80078,0.625 -3.1875,-0.81641c-1.48437,-1.53516 -3.125,-5.32422 -2.96875,-6.89062c0.09766,-0.94141 0.34766,-1.12891 3.56641,-2.78906c1.92578,-1.00391 3.78906,-1.97266 4.19922,-2.16016c0.57031,-0.31641 0.91406,-0.28516 1.80078,0.125c1.00781,0.46875 1.26172,0.46875 2.90234,0.0625c2.14844,-0.56641 7.00781,-0.62891 8.14453,-0.09375c0.60156,0.28125 0.88281,0.28125 1.16797,0c0.56641,-0.56641 2.11328,-0.44141 3.25,0.25c0.57031,0.34375 1.86328,0.90625 2.875,1.25391c3.44141,1.1875 3.85156,2.12891 3.3125,7.42188c-0.62891,6.39063 -1.29297,7.08203 -3.21875,3.41797l-1.13672,-2.13281l-0.22266,1.50391c-0.09375,0.84766 -0.47266,2.38281 -0.78906,3.41406c-0.72266,2.28906 -0.47266,2.97656 1.07422,2.97656c0.60156,0 2.42969,0.28125 4.07422,0.66016c3.62891,0.78125 4.35547,0.625 8.10938,-1.62891c5.14844,-3.13281 9.47266,-4.63672 14.01562,-4.88672c2.68359,-0.16016 3.50391,-0.06641 5.46094,0.53125c1.23047,0.375 2.27344,0.75 2.27344,0.84375c0,0.47266 -3.21875,1.37891 -5.83984,1.66016c-3.28125,0.34766 -6.53516,1.31641 -8.80469,2.63281c-1.67578,0.97266 -4.92578,3.85547 -4.92578,4.38672c0,0.1875 0.47266,1.28516 1.07422,2.38281c1.10547,2.06641 2.74609,7.10938 4.13281,12.6875c0.44141,1.72266 1.07422,4.03906 1.42188,5.16797c0.31641,1.12891 0.69531,2.63281 0.82031,3.35156l0.22266,1.34766h27.93359l0.66406,-2.50391c1.19922,-4.35547 1.60938,-6.92578 1.79688,-11.28125c0.53906,-11.27734 -2.67969,-21.77344 -9.65625,-31.39062c-2.08594,-2.91406 -7.64062,-8.26953 -10.89062,-10.55859c-3.62891,-2.53906 -10.13281,-5.67188 -14.23828,-6.85938c-5.87109,-1.72266 -11.04687,-2.28906 -17.80078,-1.88281zM46.40234,0.6875"></path><path d="M56.1875,57.17578c-0.94922,0.40625 -2.11719,1.06641 -2.58984,1.50391c-0.82031,0.71875 -0.88281,0.97266 -0.88281,3.13281c0,1.28516 -0.09375,2.57031 -0.19141,2.85156c-0.15625,0.4375 0.41406,0.5 5.33594,0.5h5.52344l-0.15625,-1.34766c-0.22266,-2.03516 -0.69531,-2.97656 -1.83203,-3.66406c-0.97656,-0.59375 -2.39844,-2.03516 -3.15625,-3.19531c-0.28516,-0.4375 -0.50391,-0.40625 -2.05078,0.21875zM56.1875,57.17578"></path><path d="M33.64844,59.30469c-0.09375,1.06641 -0.21875,2.82031 -0.31641,3.91797l-0.125,1.94141l5.87109,-0.0625l5.90234,-0.09375l0.09375,-1.03516c0.06641,-0.625 -0.15625,-1.41016 -0.56641,-2.09766c-0.75781,-1.19141 -1.19922,-1.28516 -5.20703,-1.12891c-2.02344,0.09375 -2.65234,-0.25 -3.82031,-2.03516c-0.28516,-0.4375 -0.78906,-0.91016 -1.10547,-1.06641c-0.50391,-0.28125 -0.56641,-0.09375 -0.72656,1.66016zM33.64844,59.30469"></path><path d="M13.63672,70.86719c0.09375,0.21875 0.66406,0.4375 1.29297,0.5l1.16797,0.09375v3.28906c0,2.69531 0.09375,3.25781 0.47266,3.25781c0.37891,0 0.47656,-0.5625 0.47656,-3.28906v-3.28906h1.26172c0.91406,0 1.26172,-0.125 1.26172,-0.46875c0,-0.375 -0.53516,-0.46875 -3.03125,-0.46875c-2.26953,0 -2.99609,0.09375 -2.90234,0.375zM13.63672,70.86719"></path><path d="M21.96875,70.74219c-0.25,0.40625 -2.71484,6.76562 -2.71484,7.01562c0,0.66016 0.85156,0.125 1.26563,-0.78125c0.375,-0.84766 0.66016,-1.03516 1.67188,-1.09766c1.10547,-0.09375 1.23047,-0.03125 1.64063,1.00391c0.31641,0.71875 0.69531,1.125 1.07422,1.125c0.50391,0 0.41016,-0.40625 -0.85156,-3.75781c-1.32813,-3.50781 -1.67578,-4.13672 -2.08594,-3.50781zM22.37891,75.12891c-0.53516,0.0625 -1.03906,0.0625 -1.10547,-0.03125c-0.0625,-0.0625 0.09766,-0.66016 0.37891,-1.34766l0.53906,-1.22266l0.56641,1.25391l0.57031,1.25391zM22.37891,75.12891"></path><path d="M26.83203,74.25c0,3.38281 0.0625,3.75781 0.56641,3.75781c0.47266,0 0.53906,-0.34375 0.44141,-3.75781c-0.09375,-3.00781 -0.1875,-3.75781 -0.56641,-3.75781c-0.34766,0 -0.44141,0.6875 -0.44141,3.75781zM26.83203,74.25"></path><path d="M30.30469,74.25v3.75781h1.89062c2.14844,0 2.58984,-0.53125 0.57031,-0.6875l-1.35937,-0.09375l-0.09375,-3.38281c-0.0625,-2.69531 -0.1875,-3.35156 -0.53516,-3.35156c-0.37891,0 -0.47266,0.65625 -0.47266,3.75781zM30.30469,74.25"></path><path d="M40.71875,74.25v3.75781h1.57813c2.875,0 4.29297,-1.40625 4.23047,-4.13281c-0.0625,-2.32031 -1.42187,-3.38281 -4.26172,-3.38281h-1.54687zM44.76172,72.24609c1.38672,1.59766 0.56641,4.54297 -1.42187,4.91797c-1.54687,0.28125 -1.67187,0.0625 -1.67187,-2.88281c0,-1.50391 0.09375,-2.85156 0.21875,-2.97656c0.44141,-0.4375 2.14844,0.125 2.875,0.94141zM44.76172,72.24609"></path><path d="M48.32813,74.25l-0.03125,3.75781h1.89063c1.04297,0 1.89453,-0.125 1.89453,-0.3125c0,-0.1875 -0.34766,-0.34375 -0.78906,-0.34375c-0.44141,-0.03125 -0.97656,-0.0625 -1.16797,-0.09375c-0.25,0 -0.44141,-0.59375 -0.50391,-1.37891l-0.09375,-1.31641h1.10547c1.41797,0 1.48047,-0.5625 0.125,-0.6875c-0.94531,-0.09375 -1.04297,-0.1875 -1.13672,-1.28516c-0.0625,-0.78516 0.03125,-1.16016 0.31641,-1.19141c0.21875,-0.03125 0.56641,-0.0625 0.72656,-0.125c0.1875,-0.03125 0.56641,-0.09375 0.88281,-0.09375c0.28516,-0.03125 0.53516,-0.21875 0.53516,-0.375c0,-0.1875 -0.82031,-0.3125 -1.85937,-0.3125h-1.86328zM48.32813,74.25"></path><path d="M53.97656,74.25v3.75781h1.86328c1.04297,0 1.98828,-0.15625 2.08203,-0.3125c0.09766,-0.1875 0,-0.3125 -0.21875,-0.34375c-0.22266,0 -0.82031,-0.0625 -1.35937,-0.0625l-0.94531,-0.0625l-0.09375,-3.38281c-0.06641,-3.10156 -0.12891,-3.35156 -0.69531,-3.35156c-0.60156,0 -0.63281,0.21875 -0.63281,3.75781zM53.97656,74.25"></path><path d="M59.34375,74.25c0,3.38281 0.0625,3.75781 0.56641,3.75781c0.47656,0 0.53906,-0.34375 0.44531,-3.75781c-0.09766,-3.00781 -0.19141,-3.75781 -0.57031,-3.75781c-0.34766,0 -0.44141,0.6875 -0.44141,3.75781zM59.34375,74.25"></path><path d="M62.02734,71.02344c0.125,0.3125 0.78906,1.94141 1.45313,3.66406c1.32422,3.38281 1.41797,3.57422 1.82813,3.13281c0.25391,-0.25 2.875,-6.82812 2.875,-7.17187c0,-0.09375 -0.19141,-0.15625 -0.44531,-0.15625c-0.25,0 -0.88281,1.1875 -1.51172,2.87891l-1.10547,2.91406l-0.41016,-1.25c-1.19922,-3.66797 -1.60938,-4.54297 -2.27344,-4.54297c-0.47266,0 -0.57031,0.125 -0.41016,0.53125zM62.02734,71.02344"></path><path d="M69.47656,74.25l-0.03125,3.75781h1.89453c1.38672,0 1.89063,-0.125 1.89063,-0.4375c0,-0.28125 -0.375,-0.40625 -1.16797,-0.375c-1.19922,0.03125 -1.19922,0.03125 -1.29297,-1.31641l-0.09375,-1.31641h1.10547c1.41797,0 1.48438,-0.5625 0.125,-0.6875c-0.97656,-0.09375 -1.04297,-0.1875 -1.13672,-1.37891c-0.09375,-1.22266 -0.0625,-1.28516 0.75781,-1.19141c0.94922,0.09375 1.70313,-0.125 1.70313,-0.53125c0,-0.15625 -0.85156,-0.28125 -1.85937,-0.28125h-1.86328zM69.47656,74.25"></path><path d="M75.15625,74.21875c-0.0625,3.63281 -0.03125,3.78906 0.60156,3.78906c0.53516,0 0.63281,-0.1875 0.63281,-1.40625c0,-1.03516 0.125,-1.41016 0.47266,-1.41016c0.25,0 0.88281,0.625 1.41797,1.41016c0.63281,0.875 1.19922,1.40625 1.61328,1.40625c0.59766,0 0.53516,-0.15625 -0.47656,-1.53516c-1.10547,-1.50391 -1.10547,-1.50391 -0.50391,-2.06641c0.78906,-0.6875 0.85156,-2.72656 0.125,-3.32031c-0.25,-0.21875 -1.23047,-0.4375 -2.14453,-0.53125l-1.67187,-0.125zM78.25,71.93359c0.72656,0.6875 0.09766,2.12891 -1.00781,2.25391c-0.82031,0.09375 -0.85156,0.0625 -0.85156,-1.50391c0,-1.53516 0.03125,-1.59766 0.72266,-1.41016c0.37891,0.125 0.91797,0.40625 1.13672,0.66016zM78.25,71.93359"></path><path d="M80.87109,70.71094c0.0625,0.15625 0.56641,1.125 1.13672,2.19141c0.75781,1.44141 1.01172,2.35156 1.01172,3.53906c0,1.19141 0.125,1.56641 0.47266,1.56641c0.37891,0 0.47266,-0.40625 0.47266,-1.75391c0,-1.41016 0.22266,-2.12891 1.13672,-3.75781c0.85156,-1.50391 1.00781,-2.00391 0.66406,-2.00391c-0.28516,0 -0.88672,0.71875 -1.39062,1.56641l-0.91406,1.56641l-0.75781,-1.56641c-0.50781,-1.06641 -0.91797,-1.56641 -1.35937,-1.56641c-0.31641,0 -0.53516,0.09375 -0.47266,0.21875zM80.87109,70.71094"></path><path d="M34.40625,79.26172c0,0.1875 1.04297,0.3125 2.49219,0.3125c1.39062,0 2.62109,-0.15625 2.71484,-0.3125c0.12891,-0.1875 -0.78906,-0.3125 -2.49219,-0.3125c-1.60937,0 -2.71484,0.125 -2.71484,0.3125zM34.40625,79.26172"></path><path d="M17.67578,85.83984c6.53516,5.70313 15.5625,9.90234 24.46484,11.4375c4.23047,0.71875 11.58594,0.71875 15.78125,0c8.93359,-1.53516 17.96094,-5.73437 24.46484,-11.4375l1.42188,-1.21875h-67.55078zM17.67578,85.83984"></path></g></g></g></svg>