<?xml version="1.0" encoding="UTF-8"?>
<svg xmlns="http://www.w3.org/2000/svg" xmlns:xlink="http://www.w3.org/1999/xlink" width="100px" height="101px" viewBox="0 0 100 101" version="1.1">
<g id="surface1">
<path style=" stroke:none;fill-rule:nonzero;fill:rgb(100%,100%,100%);fill-opacity:1;" d="M 45.722656 1.929688 C 39.628906 2.492188 34.328125 3.996094 28.582031 6.785156 C 26.339844 7.847656 23.214844 9.636719 21.636719 10.730469 C 18.386719 13.019531 12.832031 18.375 10.746094 21.289062 C 1.433594 34.101562 -1.246094 48.761719 2.886719 63.957031 L 3.550781 66.464844 L 27.257812 66.464844 L 26.972656 65.117188 C 26.84375 64.394531 26.6875 61.542969 26.6875 58.789062 C 26.6875 55.90625 26.5 53.117188 26.277344 52.242188 C 25.929688 50.863281 25.960938 50.265625 26.6875 46.757812 C 27.667969 42.027344 28.046875 40.773438 28.644531 40.085938 C 29.214844 39.460938 29.023438 38.769531 27.761719 36.734375 C 27.257812 35.917969 26.65625 34.351562 26.433594 33.257812 C 26.152344 32.003906 25.929688 31.46875 25.804688 31.785156 C 25.425781 32.785156 24.003906 32.410156 22.617188 30.96875 C 21.132812 29.433594 19.492188 25.644531 19.648438 24.078125 C 19.742188 23.136719 19.996094 22.949219 23.214844 21.289062 C 25.140625 20.285156 27.003906 19.316406 27.414062 19.128906 C 27.980469 18.8125 28.328125 18.84375 29.214844 19.253906 C 30.222656 19.722656 30.476562 19.722656 32.117188 19.316406 C 34.261719 18.75 39.125 18.6875 40.261719 19.222656 C 40.859375 19.503906 41.144531 19.503906 41.429688 19.222656 C 41.996094 18.65625 43.542969 18.78125 44.679688 19.472656 C 45.25 19.816406 46.542969 20.378906 47.550781 20.726562 C 50.992188 21.914062 51.402344 22.855469 50.867188 28.148438 C 50.234375 34.539062 49.574219 35.230469 47.648438 31.566406 L 46.511719 29.433594 L 46.289062 30.9375 C 46.195312 31.785156 45.816406 33.320312 45.5 34.351562 C 44.773438 36.640625 45.027344 37.328125 46.574219 37.328125 C 47.171875 37.328125 49.003906 37.609375 50.644531 37.988281 C 54.277344 38.769531 55.003906 38.613281 58.757812 36.359375 C 63.902344 33.226562 68.226562 31.722656 72.773438 31.46875 C 75.457031 31.3125 76.277344 31.40625 78.234375 32.003906 C 79.464844 32.378906 80.507812 32.753906 80.507812 32.847656 C 80.507812 33.320312 77.289062 34.226562 74.667969 34.507812 C 71.382812 34.855469 68.132812 35.824219 65.859375 37.140625 C 64.1875 38.113281 60.9375 40.992188 60.9375 41.527344 C 60.9375 41.714844 61.410156 42.8125 62.007812 43.90625 C 63.113281 45.976562 64.753906 51.019531 66.144531 56.59375 C 66.585938 58.316406 67.21875 60.636719 67.566406 61.765625 C 67.878906 62.890625 68.257812 64.394531 68.386719 65.117188 L 68.605469 66.464844 L 96.542969 66.464844 L 97.207031 63.957031 C 98.40625 59.601562 98.816406 57.035156 99.003906 52.679688 C 99.542969 41.402344 96.320312 30.90625 89.34375 21.289062 C 87.261719 18.375 81.707031 13.019531 78.457031 10.730469 C 74.855469 8.226562 68.324219 5.0625 64.25 3.871094 C 58.347656 2.148438 51.339844 1.394531 45.722656 1.929688 Z M 45.722656 1.929688 "/>
<path style=" stroke:none;fill-rule:nonzero;fill:rgb(100%,100%,100%);fill-opacity:1;" d="M 56.203125 58.476562 C 55.253906 58.882812 54.085938 59.539062 53.613281 59.980469 C 52.792969 60.699219 52.730469 60.949219 52.730469 63.109375 C 52.730469 64.394531 52.632812 65.679688 52.539062 65.960938 C 52.382812 66.402344 52.949219 66.464844 57.875 66.464844 L 63.398438 66.464844 L 63.242188 65.117188 C 63.019531 63.078125 62.546875 62.140625 61.410156 61.449219 C 60.429688 60.855469 59.011719 59.414062 58.253906 58.253906 C 57.96875 57.816406 57.75 57.847656 56.203125 58.476562 Z M 56.203125 58.476562 "/>
<path style=" stroke:none;fill-rule:nonzero;fill:rgb(100%,100%,100%);fill-opacity:1;" d="M 33.664062 60.605469 C 33.570312 61.671875 33.441406 63.425781 33.347656 64.519531 L 33.222656 66.464844 L 39.09375 66.402344 L 44.996094 66.308594 L 45.089844 65.273438 C 45.152344 64.644531 44.933594 63.863281 44.523438 63.175781 C 43.765625 61.984375 43.324219 61.890625 39.3125 62.046875 C 37.292969 62.140625 36.664062 61.796875 35.496094 60.011719 C 35.210938 59.570312 34.707031 59.101562 34.390625 58.945312 C 33.882812 58.664062 33.820312 58.851562 33.664062 60.605469 Z M 33.664062 60.605469 "/>
<path style=" stroke:none;fill-rule:nonzero;fill:rgb(100%,100%,100%);fill-opacity:1;" d="M 10.746094 73.042969 C 10.746094 73.542969 10.96875 73.667969 11.851562 73.667969 L 12.925781 73.667969 L 13.019531 76.238281 C 13.113281 78.429688 13.210938 78.835938 13.683594 78.933594 C 14.15625 79.027344 14.21875 78.742188 14.21875 76.363281 L 14.21875 73.699219 L 15.386719 73.605469 C 16.238281 73.542969 16.617188 73.355469 16.679688 72.949219 C 16.777344 72.476562 16.492188 72.414062 13.777344 72.414062 C 10.96875 72.414062 10.746094 72.445312 10.746094 73.042969 Z M 10.746094 73.042969 "/>
<path style=" stroke:none;fill-rule:nonzero;fill:rgb(100%,100%,100%);fill-opacity:1;" d="M 17.753906 73.449219 C 16.808594 74.421875 16.746094 74.640625 16.746094 76.738281 C 16.746094 78.773438 16.808594 78.996094 17.375 78.996094 C 17.882812 78.996094 18.007812 78.773438 18.007812 78.054688 C 18.007812 77.113281 18.039062 77.113281 19.742188 77.113281 C 21.480469 77.113281 21.480469 77.113281 21.480469 78.085938 C 21.480469 78.835938 21.605469 79.027344 22.046875 78.933594 C 22.519531 78.835938 22.585938 78.398438 22.679688 75.609375 L 22.773438 72.414062 L 20.753906 72.414062 C 18.921875 72.414062 18.671875 72.507812 17.753906 73.449219 Z M 21.480469 74.765625 L 21.480469 75.863281 L 19.742188 75.863281 C 17.816406 75.863281 17.597656 75.546875 18.703125 74.390625 C 19.144531 73.917969 19.742188 73.667969 20.4375 73.667969 C 21.417969 73.667969 21.480469 73.730469 21.480469 74.765625 Z M 21.480469 74.765625 "/>
<path style=" stroke:none;fill-rule:nonzero;fill:rgb(100%,100%,100%);fill-opacity:1;" d="M 23.6875 75.734375 C 23.6875 78.710938 23.753906 79.027344 24.257812 78.933594 C 24.730469 78.835938 24.792969 78.398438 24.886719 75.609375 C 24.984375 72.570312 24.953125 72.414062 24.320312 72.414062 C 23.71875 72.414062 23.6875 72.601562 23.6875 75.734375 Z M 23.6875 75.734375 "/>
<path style=" stroke:none;fill-rule:nonzero;fill:rgb(100%,100%,100%);fill-opacity:1;" d="M 25.898438 75.703125 L 25.898438 78.996094 L 28.582031 78.996094 C 31.042969 78.996094 31.265625 78.933594 31.265625 78.367188 C 31.265625 77.804688 31.042969 77.742188 29.214844 77.742188 L 27.160156 77.742188 L 27.160156 75.078125 C 27.160156 72.636719 27.097656 72.414062 26.53125 72.414062 C 25.929688 72.414062 25.898438 72.636719 25.898438 75.703125 Z M 25.898438 75.703125 "/>
<path style=" stroke:none;fill-rule:nonzero;fill:rgb(100%,100%,100%);fill-opacity:1;" d="M 32.273438 72.792969 C 32.085938 72.980469 31.894531 73.824219 31.894531 74.640625 C 31.894531 76.363281 32.085938 76.488281 34.609375 76.488281 C 36.09375 76.488281 36.316406 76.550781 36.316406 77.113281 C 36.316406 77.648438 36.09375 77.742188 34.738281 77.742188 C 33.882812 77.742188 33.160156 77.585938 33.160156 77.429688 C 33.160156 77.238281 32.875 77.113281 32.527344 77.113281 C 32.117188 77.113281 31.894531 77.332031 31.894531 77.710938 C 31.894531 78.742188 32.652344 79.027344 35.117188 78.933594 L 37.421875 78.835938 L 37.421875 75.390625 L 35.304688 75.296875 C 33.253906 75.203125 33.160156 75.171875 33.160156 74.453125 C 33.160156 73.730469 33.285156 73.667969 34.738281 73.667969 C 35.621094 73.667969 36.316406 73.792969 36.316406 73.980469 C 36.316406 74.136719 36.597656 74.296875 36.976562 74.296875 C 37.484375 74.296875 37.609375 74.136719 37.515625 73.417969 C 37.421875 72.601562 37.386719 72.570312 35.050781 72.476562 C 33.472656 72.414062 32.558594 72.507812 32.273438 72.792969 Z M 32.273438 72.792969 "/>
<path style=" stroke:none;fill-rule:nonzero;fill:rgb(100%,100%,100%);fill-opacity:1;" d="M 42.3125 75.703125 L 42.3125 79.027344 L 45.089844 78.933594 L 47.835938 78.835938 L 47.929688 76.519531 C 48.027344 74.359375 47.964844 74.136719 47.171875 73.324219 C 46.382812 72.507812 46.070312 72.414062 44.300781 72.414062 L 42.3125 72.414062 Z M 46.164062 74.203125 C 46.574219 74.546875 46.730469 75.140625 46.730469 76.238281 L 46.730469 77.742188 L 43.574219 77.742188 L 43.574219 73.667969 L 44.585938 73.667969 C 45.121094 73.667969 45.847656 73.886719 46.164062 74.203125 Z M 46.164062 74.203125 "/>
<path style=" stroke:none;fill-rule:nonzero;fill:rgb(100%,100%,100%);fill-opacity:1;" d="M 48.941406 75.703125 L 48.941406 79.027344 L 51.6875 78.933594 C 54.023438 78.835938 54.464844 78.742188 54.558594 78.273438 C 54.65625 77.804688 54.402344 77.742188 52.445312 77.742188 C 50.425781 77.742188 50.203125 77.679688 50.203125 77.113281 C 50.203125 76.613281 50.457031 76.519531 52.160156 76.425781 C 53.738281 76.363281 54.148438 76.238281 54.246094 75.769531 C 54.339844 75.296875 54.085938 75.234375 52.289062 75.234375 C 50.296875 75.234375 50.203125 75.203125 50.203125 74.453125 C 50.203125 73.730469 50.296875 73.699219 52.320312 73.605469 C 54.054688 73.542969 54.464844 73.417969 54.558594 72.949219 C 54.65625 72.476562 54.371094 72.414062 51.8125 72.414062 L 48.941406 72.414062 Z M 48.941406 75.703125 "/>
<path style=" stroke:none;fill-rule:nonzero;fill:rgb(100%,100%,100%);fill-opacity:1;" d="M 55.253906 75.703125 L 55.253906 79.027344 L 58 78.933594 C 60.335938 78.835938 60.777344 78.742188 60.875 78.273438 C 60.96875 77.804688 60.714844 77.742188 58.757812 77.742188 L 56.515625 77.742188 L 56.515625 75.078125 C 56.515625 72.636719 56.453125 72.414062 55.886719 72.414062 C 55.285156 72.414062 55.253906 72.636719 55.253906 75.703125 Z M 55.253906 75.703125 "/>
<path style=" stroke:none;fill-rule:nonzero;fill:rgb(100%,100%,100%);fill-opacity:1;" d="M 61.566406 75.703125 C 61.566406 78.773438 61.597656 78.996094 62.199219 78.996094 C 62.796875 78.996094 62.832031 78.773438 62.832031 75.703125 C 62.832031 72.636719 62.796875 72.414062 62.199219 72.414062 C 61.597656 72.414062 61.566406 72.636719 61.566406 75.703125 Z M 61.566406 75.703125 "/>
<path style=" stroke:none;fill-rule:nonzero;fill:rgb(100%,100%,100%);fill-opacity:1;" d="M 63.523438 74.671875 C 63.585938 76.644531 63.714844 77.082031 64.503906 77.960938 C 65.765625 79.371094 67.058594 79.371094 68.449219 77.960938 C 69.394531 76.988281 69.460938 76.769531 69.460938 74.671875 C 69.460938 72.636719 69.394531 72.414062 68.828125 72.414062 C 68.257812 72.414062 68.195312 72.636719 68.195312 74.390625 C 68.195312 76.050781 68.070312 76.488281 67.46875 77.050781 C 66.523438 77.929688 66.175781 77.929688 65.386719 76.925781 C 64.882812 76.300781 64.722656 75.640625 64.722656 74.265625 C 64.722656 72.601562 64.660156 72.414062 64.0625 72.414062 C 63.460938 72.414062 63.429688 72.570312 63.523438 74.671875 Z M 63.523438 74.671875 "/>
<path style=" stroke:none;fill-rule:nonzero;fill:rgb(100%,100%,100%);fill-opacity:1;" d="M 70.40625 75.703125 L 70.40625 78.996094 L 73.089844 78.996094 C 75.550781 78.996094 75.773438 78.933594 75.773438 78.367188 C 75.773438 77.804688 75.550781 77.742188 73.71875 77.742188 C 71.890625 77.742188 71.667969 77.679688 71.667969 77.113281 C 71.667969 76.550781 71.890625 76.488281 73.5625 76.488281 C 75.234375 76.488281 75.457031 76.425781 75.457031 75.863281 C 75.457031 75.296875 75.234375 75.234375 73.5625 75.234375 C 71.761719 75.234375 71.667969 75.203125 71.667969 74.453125 C 71.667969 73.699219 71.730469 73.667969 73.71875 73.667969 C 75.550781 73.667969 75.773438 73.605469 75.773438 73.042969 C 75.773438 72.476562 75.550781 72.414062 73.089844 72.414062 L 70.40625 72.414062 Z M 70.40625 75.703125 "/>
<path style=" stroke:none;fill-rule:nonzero;fill:rgb(100%,100%,100%);fill-opacity:1;" d="M 76.71875 75.734375 C 76.71875 78.710938 76.78125 79.027344 77.289062 78.933594 C 77.601562 78.867188 77.855469 78.492188 77.917969 77.960938 C 78.078125 76.738281 79.527344 76.769531 80.601562 78.054688 C 81.042969 78.554688 81.644531 78.996094 81.894531 78.996094 C 82.496094 78.996094 82.558594 78.023438 82.023438 77.492188 C 81.738281 77.207031 81.738281 77.019531 82.023438 76.738281 C 82.242188 76.519531 82.402344 75.640625 82.402344 74.765625 C 82.402344 73.886719 82.242188 73.011719 82.023438 72.792969 C 81.800781 72.570312 80.664062 72.414062 79.179688 72.414062 L 76.71875 72.414062 Z M 81.136719 74.765625 L 81.136719 75.863281 L 77.980469 75.863281 L 77.980469 73.667969 L 81.136719 73.667969 Z M 81.136719 74.765625 "/>
<path style=" stroke:none;fill-rule:nonzero;fill:rgb(100%,100%,100%);fill-opacity:1;" d="M 83.03125 73.636719 C 83.03125 74.671875 83.191406 74.953125 84.136719 75.578125 C 85.117188 76.238281 85.242188 76.488281 85.242188 77.648438 C 85.242188 78.773438 85.335938 78.996094 85.875 78.996094 C 86.410156 78.996094 86.503906 78.773438 86.503906 77.773438 C 86.503906 76.707031 86.664062 76.394531 87.609375 75.671875 C 88.523438 74.984375 88.714844 74.640625 88.714844 73.636719 C 88.714844 72.636719 88.621094 72.414062 88.082031 72.414062 C 87.578125 72.414062 87.453125 72.636719 87.453125 73.449219 C 87.453125 74.234375 87.261719 74.609375 86.664062 74.921875 C 85.558594 75.484375 84.296875 74.671875 84.296875 73.355469 C 84.296875 72.636719 84.167969 72.414062 83.664062 72.414062 C 83.128906 72.414062 83.03125 72.636719 83.03125 73.636719 Z M 83.03125 73.636719 "/>
<path style=" stroke:none;fill-rule:nonzero;fill:rgb(100%,100%,100%);fill-opacity:1;" d="M 17.691406 87.140625 C 24.195312 92.839844 33.222656 97.039062 42.15625 98.574219 C 46.351562 99.292969 53.707031 99.292969 57.9375 98.574219 C 66.839844 97.039062 75.867188 92.839844 82.402344 87.140625 L 83.820312 85.917969 L 16.269531 85.917969 Z M 17.691406 87.140625 "/>
</g>
</svg>
