<?xml version="1.0" standalone="no"?>
<!DOCTYPE svg PUBLIC "-//W3C//DTD SVG 20010904//EN"
 "http://www.w3.org/TR/2001/REC-SVG-20010904/DTD/svg10.dtd">
<svg version="1.0" xmlns="http://www.w3.org/2000/svg"
 width="1198.000000pt" height="215.000000pt" viewBox="0 0 1198.000000 215.000000"
 preserveAspectRatio="xMidYMid meet">

<g transform="translate(0.000000,215.000000) scale(0.100000,-0.100000)"
fill="#000000" stroke="none">
<path d="M11545 1786 c-9 -14 -15 -37 -13 -53 2 -22 8 -28 28 -28 35 0 58 44
42 79 -15 33 -37 33 -57 2z"/>
<path d="M11675 1798 c-31 -18 -45 -41 -42 -68 3 -37 48 -40 76 -4 24 30 27
54 9 72 -15 15 -18 15 -43 0z"/>
<path d="M3475 1725 c-28 -29 -30 -52 -3 -69 26 -16 73 22 73 60 0 40 -34 44
-70 9z"/>
<path d="M11744 1718 c-38 -18 -57 -81 -28 -92 42 -16 111 57 84 89 -14 17
-26 18 -56 3z"/>
<path d="M3570 1670 c-44 -44 -4 -85 55 -57 30 14 36 22 33 45 -2 22 -9 28
-35 30 -22 2 -38 -3 -53 -18z"/>
<path d="M11479 1649 c-10 -10 -19 -24 -19 -29 0 -12 57 -70 69 -70 5 0 19
-20 32 -45 17 -32 30 -45 45 -45 32 0 43 19 55 105 15 97 8 105 -93 104 -55
-1 -74 -5 -89 -20z"/>
<path d="M3373 1649 c-27 -10 -31 -53 -8 -83 8 -11 15 -40 15 -64 0 -60 14
-82 51 -82 23 0 33 6 42 28 7 15 25 47 41 70 36 53 31 65 -43 103 -71 37 -73
38 -98 28z"/>
<path d="M11710 1575 c-19 -20 -21 -27 -10 -40 20 -25 74 -19 90 9 7 14 10 32
7 40 -10 25 -60 20 -87 -9z"/>
<path d="M2022 1561 c-27 -38 -28 -53 -1 -69 18 -12 24 -11 46 9 17 17 23 32
21 54 -4 42 -37 45 -66 6z"/>
<path d="M3596 1569 c-30 -24 -33 -37 -8 -55 23 -18 53 -17 80 2 27 19 29 50
3 64 -29 15 -45 12 -75 -11z"/>
<path d="M2136 1541 c-9 -10 -18 -31 -19 -47 -2 -22 3 -30 19 -32 28 -4 74 41
74 73 0 21 -5 25 -28 25 -16 0 -37 -8 -46 -19z"/>
<path d="M3540 1472 c-25 -21 -19 -49 15 -62 55 -21 98 27 55 62 -28 23 -42
23 -70 0z"/>
<path d="M2185 1444 c-19 -21 -22 -30 -14 -45 18 -35 86 -13 102 32 15 43 -52
52 -88 13z"/>
<path d="M1938 1449 c-27 -15 -22 -42 17 -82 19 -20 35 -41 35 -47 0 -7 7 -27
16 -46 28 -59 79 -42 91 30 3 20 10 39 14 42 14 8 11 80 -3 91 -19 15 -150 25
-170 12z"/>
<path d="M2838 1449 c-41 -24 -4 -70 50 -61 29 5 48 38 31 58 -13 16 -56 18
-81 3z"/>
<path d="M4916 1438 c-11 -15 -12 -26 -5 -40 23 -43 108 2 92 50 -8 21 -70 15
-87 -10z"/>
<path d="M2692 1430 c-6 -11 -12 -33 -12 -49 0 -17 -9 -52 -19 -79 -20 -49
-20 -50 0 -71 24 -25 21 -25 67 -2 20 10 50 25 66 32 49 24 54 42 21 91 -16
23 -30 45 -30 48 0 3 -7 15 -15 28 -19 28 -61 29 -78 2z"/>
<path d="M4090 1401 c-5 -11 -10 -26 -10 -34 0 -8 -15 -29 -33 -48 -39 -40
-51 -83 -30 -105 20 -19 152 -8 171 15 12 15 11 27 -6 111 -15 72 -67 107 -92
61z"/>
<path d="M4780 1395 c-10 -12 -10 -24 0 -60 10 -35 10 -52 1 -71 -17 -38 -13
-72 8 -84 29 -15 36 -13 76 23 96 84 101 93 64 125 -11 9 -35 32 -54 50 -36
35 -75 42 -95 17z"/>
<path d="M4230 1375 c-18 -21 -8 -48 23 -63 24 -12 31 -11 53 2 30 20 30 33 2
57 -28 22 -61 24 -78 4z"/>
<path d="M4990 1366 c-6 -8 -10 -25 -8 -38 2 -18 10 -24 35 -26 58 -6 94 33
61 66 -17 17 -73 15 -88 -2z"/>
<path d="M2885 1349 c-14 -22 5 -57 34 -64 57 -12 98 40 52 65 -25 13 -78 13
-86 -1z"/>
<path d="M2156 1337 c-21 -15 -18 -45 5 -60 36 -23 98 19 83 57 -8 20 -63 21
-88 3z"/>
<path d="M10288 1326 c-26 -19 -34 -69 -14 -85 35 -29 96 48 66 84 -15 18 -30
19 -52 1z"/>
<path d="M10398 1294 c-28 -15 -45 -54 -33 -73 11 -19 54 -12 80 14 28 29 33
60 9 69 -21 8 -25 7 -56 -10z"/>
<path d="M4247 1273 c-15 -14 -6 -53 15 -67 25 -18 74 -21 83 -6 11 18 -7 58
-31 69 -28 12 -57 14 -67 4z"/>
<path d="M2857 1255 c-31 -31 9 -75 68 -75 43 0 40 52 -6 75 -35 19 -44 19
-62 0z"/>
<path d="M4981 1252 c-13 -25 3 -49 38 -57 37 -8 71 9 71 35 0 39 -90 57 -109
22z"/>
<path d="M11106 1241 c-10 -11 -16 -30 -14 -43 7 -51 88 -22 88 32 0 26 -4 30
-28 30 -16 0 -37 -9 -46 -19z"/>
<path d="M2750 1187 c0 -47 79 -90 94 -52 13 35 -22 74 -66 75 -23 0 -28 -4
-28 -23z"/>
<path d="M10183 1199 c-21 -21 -15 -45 17 -77 17 -17 30 -35 30 -41 0 -6 8
-29 18 -51 15 -36 20 -41 47 -38 27 3 32 9 52 68 26 73 29 113 11 128 -21 16
-161 25 -175 11z"/>
<path d="M10431 1186 c-26 -28 -21 -66 9 -66 55 0 104 46 79 76 -18 22 -63 17
-88 -10z"/>
<path d="M4191 1186 c-26 -32 24 -91 72 -84 32 5 32 31 -2 66 -31 35 -52 40
-70 18z"/>
<path d="M4907 1193 c-16 -15 -6 -53 18 -69 28 -18 54 -16 69 8 20 33 -60 89
-87 61z"/>
<path d="M11195 1176 c-33 -28 -29 -52 11 -62 50 -13 102 37 74 71 -18 22 -53
18 -85 -9z"/>
<path d="M4084 1156 c-9 -36 4 -66 33 -77 35 -13 47 1 39 45 -10 54 -61 76
-72 32z"/>
<path d="M10982 1168 c-17 -17 -15 -50 6 -78 9 -14 19 -51 22 -85 7 -85 29
-86 97 -5 43 51 50 64 44 87 -4 14 -20 33 -36 42 -17 9 -41 24 -55 34 -28 20
-61 22 -78 5z"/>
<path d="M1502 1107 c-26 -28 -28 -43 -6 -55 40 -22 92 16 79 58 -9 27 -46 25
-73 -3z"/>
<path d="M10408 1084 c-35 -18 -35 -39 -2 -61 24 -15 29 -15 53 -2 32 18 38
41 16 63 -20 20 -32 20 -67 0z"/>
<path d="M11214 1077 c-15 -9 -19 -18 -14 -37 5 -21 12 -25 48 -28 37 -3 43 0
53 22 22 47 -34 74 -87 43z"/>
<path d="M1360 1055 c-8 -10 -10 -27 -5 -53 9 -47 9 -67 0 -114 -7 -34 -5 -38
19 -49 31 -14 72 2 82 33 3 10 11 18 18 18 16 0 56 42 56 59 0 7 -25 37 -55
67 -58 56 -91 67 -115 39z"/>
<path d="M668 1026 c-33 -46 -18 -93 26 -82 27 7 40 36 34 77 -4 33 -38 35
-60 5z"/>
<path d="M781 1028 c-28 -29 -35 -56 -21 -73 30 -37 90 4 90 60 0 30 -3 35
-25 35 -13 0 -33 -10 -44 -22z"/>
<path d="M1571 1030 c-27 -23 -24 -40 13 -60 24 -12 30 -12 54 2 33 20 40 47
16 65 -25 18 -55 16 -83 -7z"/>
<path d="M6246 1031 c-10 -11 -16 -28 -14 -38 8 -43 102 -14 96 30 -4 30 -57
36 -82 8z"/>
<path d="M8937 1037 c-10 -6 -20 -29 -24 -50 -5 -35 -4 -37 20 -37 44 0 81 56
57 85 -15 18 -31 19 -53 2z"/>
<path d="M9053 1000 c-12 -5 -29 -20 -39 -35 -13 -20 -14 -28 -4 -40 18 -22
44 -18 79 11 36 30 39 49 12 64 -22 11 -19 11 -48 0z"/>
<path d="M11148 989 c-48 -27 18 -93 68 -70 13 6 24 16 24 23 -1 37 -59 66
-92 47z"/>
<path d="M6113 879 c0 -94 3 -112 18 -120 28 -15 33 -12 93 46 66 63 72 95 21
123 -16 9 -38 27 -48 40 -12 15 -29 22 -52 22 l-33 0 1 -111z"/>
<path d="M6323 955 l-28 -25 24 -20 c31 -26 54 -25 88 4 27 24 28 24 9 45 -25
28 -59 26 -93 -4z"/>
<path d="M854 945 c-32 -32 -29 -69 4 -73 33 -5 72 34 72 70 0 23 -4 28 -25
28 -14 0 -37 -11 -51 -25z"/>
<path d="M5433 948 c-17 -28 -33 -61 -33 -72 -1 -6 -14 -27 -30 -46 -35 -40
-37 -60 -10 -85 16 -14 24 -15 51 -6 18 6 47 11 65 11 56 0 82 49 50 95 -7 11
-16 37 -20 57 -9 48 -53 76 -73 46z"/>
<path d="M1568 919 c-10 -10 -18 -22 -18 -25 0 -14 36 -33 62 -34 40 0 58 10
58 32 0 45 -70 63 -102 27z"/>
<path d="M8828 926 c-22 -16 -24 -62 -3 -70 8 -3 15 -12 15 -19 0 -8 7 -20 15
-27 8 -7 15 -27 15 -44 0 -40 9 -53 40 -57 21 -4 29 5 62 66 20 39 37 77 37
86 1 21 -31 49 -56 49 -11 0 -37 7 -56 15 -44 18 -47 18 -69 1z"/>
<path d="M5568 919 c-37 -21 -5 -69 47 -69 15 0 45 27 45 40 0 32 -57 50 -92
29z"/>
<path d="M7563 901 c-13 -11 -23 -31 -23 -45 0 -22 5 -26 28 -26 42 0 64 21
60 55 -4 37 -33 43 -65 16z"/>
<path d="M655 901 c-38 -5 -51 -11 -53 -24 -7 -34 7 -62 36 -75 16 -7 42 -33
58 -57 47 -74 95 -57 89 33 -1 23 2 45 6 48 13 8 11 58 -3 72 -12 12 -47 13
-133 3z"/>
<path d="M9104 902 c-34 -5 -61 -39 -48 -60 25 -39 104 -15 104 32 0 25 -19
34 -56 28z"/>
<path d="M9732 873 c-22 -27 -22 -28 -3 -46 23 -23 55 -16 77 19 34 51 -35 76
-74 27z"/>
<path d="M6327 852 c-21 -23 -21 -27 -1 -46 30 -31 104 -18 104 18 0 41 -74
61 -103 28z"/>
<path d="M1493 853 c-19 -7 -16 -37 5 -55 26 -23 53 -30 68 -17 43 35 -18 95
-73 72z"/>
<path d="M7652 844 c-37 -26 -23 -74 23 -74 39 1 70 37 66 78 -1 17 -62 15
-89 -4z"/>
<path d="M852 830 c-29 -27 -28 -48 3 -62 35 -16 77 13 73 50 -4 35 -44 42
-76 12z"/>
<path d="M9603 842 c-9 -5 -12 -34 -12 -84 0 -43 -2 -82 -6 -88 -4 -6 -4 -22
-1 -36 9 -33 49 -32 91 4 18 15 45 35 59 45 14 10 26 26 26 35 0 21 -111 132
-131 132 -8 0 -20 -4 -26 -8z"/>
<path d="M5593 823 c-20 -7 -15 -41 8 -64 28 -28 83 -23 87 7 5 36 -57 73 -95
57z"/>
<path d="M7448 819 c-23 -13 -23 -36 2 -87 11 -22 20 -59 20 -80 0 -44 18 -65
51 -60 21 3 46 34 68 85 5 11 15 24 20 28 31 19 -4 85 -45 85 -10 0 -32 9 -49
20 -34 22 -43 24 -67 9z"/>
<path d="M9808 799 c-34 -20 -10 -68 35 -69 24 0 67 29 67 46 0 29 -67 44
-102 23z"/>
<path d="M9042 793 c-7 -3 -17 -14 -23 -25 -13 -23 12 -58 42 -58 22 0 59 29
59 46 0 23 -51 48 -78 37z"/>
<path d="M6245 771 c-7 -23 13 -59 37 -67 54 -17 80 39 33 70 -33 22 -62 20
-70 -3z"/>
<path d="M7683 745 c-52 -37 -5 -91 56 -65 31 13 50 45 34 61 -18 18 -68 20
-90 4z"/>
<path d="M5537 733 c-11 -10 -7 -47 6 -64 25 -33 97 -35 97 -3 0 36 -82 89
-103 67z"/>
<path d="M5430 675 c0 -26 6 -39 25 -51 36 -24 59 -12 51 28 -8 41 -23 58 -52
58 -21 0 -24 -5 -24 -35z"/>
<path d="M9803 698 c-40 -19 -24 -55 29 -67 28 -7 40 -4 59 10 l24 19 -28 25
c-30 27 -49 30 -84 13z"/>
<path d="M8335 650 c-35 -38 15 -77 65 -50 15 8 20 19 18 38 -2 22 -9 28 -34
30 -21 2 -36 -4 -49 -18z"/>
<path d="M7607 635 c-11 -26 3 -44 39 -51 48 -9 66 0 62 33 -3 26 -7 28 -49
31 -35 2 -48 -1 -52 -13z"/>
<path d="M6920 615 c-13 -14 -22 -26 -19 -28 2 -1 14 -10 26 -21 39 -33 97 9
73 54 -15 27 -52 25 -80 -5z"/>
<path d="M8202 628 c-7 -7 -12 -39 -12 -73 0 -34 -5 -66 -11 -72 -6 -6 -9 -26
-7 -44 2 -29 7 -34 31 -37 18 -2 38 5 58 22 17 14 35 26 40 26 14 0 49 38 49
54 0 7 -18 33 -39 57 -22 24 -47 52 -55 62 -19 20 -37 22 -54 5z"/>
<path d="M6786 614 c-9 -8 -16 -32 -16 -52 0 -20 -10 -55 -22 -78 -29 -55 -20
-94 22 -94 16 0 32 4 35 10 3 5 23 14 45 20 63 17 89 59 57 92 -7 7 -23 31
-36 53 -24 40 -48 65 -62 65 -4 0 -15 -7 -23 -16z"/>
<path d="M9709 623 c-4 -23 5 -49 19 -60 24 -18 69 -16 76 3 7 19 -8 50 -30
58 -22 8 -64 8 -65 -1z"/>
<path d="M8395 558 c-15 -22 -14 -24 6 -40 39 -33 99 -18 99 24 0 40 -79 52
-105 16z"/>
<path d="M6970 525 c-29 -35 22 -84 73 -71 36 9 37 47 2 70 -30 20 -59 21 -75
1z"/>
<path d="M261 466 c-45 -48 -9 -97 45 -61 20 13 25 23 22 48 -4 41 -35 47 -67
13z"/>
<path d="M8382 464 c-31 -34 19 -83 72 -70 40 10 45 35 10 63 -33 26 -63 29
-82 7z"/>
<path d="M6931 421 c-14 -26 30 -71 70 -71 33 0 42 11 34 42 -11 42 -86 63
-104 29z"/>
<path d="M355 413 c-28 -22 -37 -43 -25 -58 28 -34 114 -4 108 38 -2 17 -11
23 -38 25 -19 1 -39 -1 -45 -5z"/>
<path d="M8287 403 c-25 -24 27 -87 67 -81 31 4 34 52 4 72 -23 16 -60 21 -71
9z"/>
<path d="M138 389 c-23 -13 -23 -36 2 -84 12 -23 20 -59 20 -86 0 -40 4 -49
21 -54 25 -8 69 12 69 31 0 7 14 27 30 44 44 45 41 83 -7 105 -21 10 -45 23
-53 30 -22 20 -62 26 -82 14z"/>
<path d="M6841 376 c-18 -21 12 -74 45 -82 48 -12 55 42 10 78 -26 21 -40 22
-55 4z"/>
<path d="M378 304 c-58 -31 -14 -86 51 -63 40 14 48 39 21 61 -27 22 -37 22
-72 2z"/>
<path d="M300 201 c-21 -40 19 -71 75 -57 32 8 33 39 3 60 -31 22 -65 20 -78
-3z"/>
</g>
</svg>
